<svg width="197" height="197" viewBox="0 0 197 197" fill="none" xmlns="http://www.w3.org/2000/svg">
<rect x="5" y="5" width="187" height="187" stroke="white" stroke-width="10"/>
<g style="mix-blend-mode:hard-light">
<path d="M87.6979 39.54H72.4537V81H62.1998V39.54H47.1607V31.2344H87.6979V39.54ZM148.199 57.2451C148.199 62.1442 147.333 66.4395 145.601 70.1309C143.869 73.8223 141.385 76.6706 138.15 78.6758C134.937 80.681 131.246 81.6836 127.076 81.6836C122.951 81.6836 119.271 80.6924 116.036 78.71C112.8 76.7275 110.293 73.902 108.516 70.2334C106.739 66.542 105.839 62.3037 105.816 57.5186V55.0576C105.816 50.1585 106.693 45.8519 108.448 42.1377C110.225 38.4007 112.72 35.541 115.933 33.5586C119.169 31.5534 122.86 30.5508 127.007 30.5508C131.154 30.5508 134.834 31.5534 138.047 33.5586C141.283 35.541 143.778 38.4007 145.533 42.1377C147.31 45.8519 148.199 50.1471 148.199 55.0234V57.2451ZM137.808 54.9893C137.808 49.7712 136.874 45.8063 135.005 43.0947C133.137 40.3831 130.471 39.0273 127.007 39.0273C123.566 39.0273 120.912 40.3717 119.043 43.0605C117.175 45.7266 116.229 49.6458 116.206 54.8184V57.2451C116.206 62.3265 117.141 66.2686 119.009 69.0713C120.878 71.874 123.566 73.2754 127.076 73.2754C130.516 73.2754 133.16 71.931 135.005 69.2422C136.851 66.5306 137.785 62.5885 137.808 57.416V54.9893ZM48.6646 163V113.234H63.9771C68.3521 113.234 72.26 114.226 75.7008 116.208C79.1643 118.168 81.8645 120.97 83.8014 124.616C85.7382 128.239 86.7066 132.364 86.7066 136.989V139.279C86.7066 143.905 85.7496 148.018 83.8355 151.618C81.9443 155.218 79.2669 158.01 75.8033 159.992C72.3398 161.975 68.4319 162.977 64.0797 163H48.6646ZM58.9186 121.54V154.763H63.8746C67.885 154.763 70.9498 153.452 73.0689 150.832C75.1881 148.212 76.2704 144.463 76.316 139.587V136.955C76.316 131.896 75.2678 128.068 73.1715 125.471C71.0751 122.85 68.0104 121.54 63.9771 121.54H58.9186ZM149.771 139.245C149.771 144.144 148.905 148.439 147.173 152.131C145.441 155.822 142.958 158.671 139.722 160.676C136.509 162.681 132.818 163.684 128.648 163.684C124.524 163.684 120.843 162.692 117.608 160.71C114.372 158.728 111.866 155.902 110.088 152.233C108.311 148.542 107.411 144.304 107.388 139.519V137.058C107.388 132.159 108.265 127.852 110.02 124.138C111.797 120.401 114.292 117.541 117.505 115.559C120.741 113.553 124.432 112.551 128.579 112.551C132.727 112.551 136.407 113.553 139.62 115.559C142.855 117.541 145.35 120.401 147.105 124.138C148.882 127.852 149.771 132.147 149.771 137.023V139.245ZM139.38 136.989C139.38 131.771 138.446 127.806 136.578 125.095C134.709 122.383 132.043 121.027 128.579 121.027C125.139 121.027 122.484 122.372 120.616 125.061C118.747 127.727 117.801 131.646 117.779 136.818V139.245C117.779 144.326 118.713 148.269 120.581 151.071C122.45 153.874 125.139 155.275 128.648 155.275C132.089 155.275 134.732 153.931 136.578 151.242C138.423 148.531 139.357 144.589 139.38 139.416V136.989Z" fill="white"/>
</g>
</svg>
